<?xml version="1.0" encoding="UTF-8"?>
<svg id="Layer_1" data-name="Layer 1" xmlns="http://www.w3.org/2000/svg" viewBox="0 0 708.66 708.66">
  <path d="m354.33,622.63c-71.67,0-139.04-27.91-189.71-78.58-50.67-50.67-78.58-118.05-78.58-189.71s27.91-139.04,78.58-189.71,118.05-78.58,189.71-78.58,139.04,27.91,189.71,78.58c50.67,50.67,78.58,118.05,78.58,189.71s-27.91,139.04-78.58,189.71c-50.67,50.67-118.05,78.58-189.71,78.58Zm0-532.59c-145.73,0-264.3,118.56-264.3,264.3s118.56,264.3,264.3,264.3,264.3-118.56,264.3-264.3S500.06,90.03,354.33,90.03Z"/>
  <path d="m354.33,606.16c-67.26,0-130.5-26.19-178.07-73.76s-73.76-110.8-73.76-178.07,26.19-130.5,73.76-178.07,110.8-73.76,178.07-73.76,130.5,26.19,178.07,73.76,73.76,110.8,73.76,178.07-26.19,130.5-73.76,178.07c-47.56,47.56-110.8,73.76-178.07,73.76Zm0-501.65c-137.75,0-249.83,112.07-249.83,249.82s112.07,249.82,249.83,249.82,249.82-112.07,249.82-249.82-112.07-249.82-249.82-249.82Z"/>
  <g>
    <g>
      <path d="m393.01,278.87c-10.8,12.22-31.21,33.68-38.28,42.76-4.58,5.89-5.38,19.64,5.51,24.28,1.44-7.73,7.77-13.96,15.99-14.9,10.08-1.15,19.19,6.09,20.34,16.17.25,2.18.1,4.31-.38,6.33,2.34.15,4.74.24,7.2.22,4.29-.03,5.84-1.59,5.62-5.18,0,0-6.77-47.87-4.41-66.08.77-5.97-8.56-7.04-11.6-3.61Z" fill="#e0873f"/>
      <circle cx="378.18" cy="349.9" r="10.85"/>
    </g>
    <path d="m196.1,352.21l6.37-13.78c.24-.51,23.07-49.01,66.56-64.46v126.09c0,2.79,2.26,5.06,5.06,5.06h0c2.79,0,5.06-2.26,5.06-5.06v-179.41c0-2.79-2.26-5.06-5.06-5.06h0c-2.79,0-5.06,2.26-5.06,5.06v10.89c-20.39-18.64-40.03-26.94-58.48-24.67-25.88,3.18-39.75,26.98-39.75,26.98l25.31,118.37Zm28.87-128.66c17.3-2.08,23.44.93,44.06,22.07v4.92c-35.64,11.11-57.19,41.18-69.05,71.42l-5.3-79.36c4.08-5.52,14.43-17.15,30.29-19.05Z"/>
    <path d="m412.04,389.59c-16.3,0-36.18-6.51-54.42-17.99-21.35-13.44-36.84-31.32-42.51-49.08-3.95-12.38-1.37-24.83,7.28-35.06,17.84-21.1,57.79-30.08,104.27-23.44,2.06.29,3.79,1.5,4.73,3.3,1.7,3.26.18,6.3-1.76,10.14-2.09,4.14-5.24,10.41-5.21,17.06h0c.06,15.14,2.74,30.55,5.11,44.15,3.48,20.01,6.24,35.81-.41,44.57-2.67,3.52-6.53,5.57-11.47,6.07-1.81.18-3.69.27-5.61.27Zm-14.48-116.36c-30.07,0-48.88,8.85-60.58,22.69-6.21,7.35-7.94,15.52-5.14,24.3,10.13,31.75,53.97,63.03,84.01,63.04,1.53,0,3.02-.07,4.47-.22,2.25-.23,3.1-1,3.58-1.64,3.66-4.83-2.89-25.55-5.54-40.77-2.45-14.04-5.22-29.95-5.28-46.05-.03-8.15,3.02-15.29,5.41-20.17-7.18-.79-14.19-1.18-20.93-1.18Z"/>
    <path d="m483.4,396.4c-18.91-3.47-29.25,3.39-46.69,10.17,4.96-5.69,9.57-10.29,13.81-13.81,2.06-1.82,5.09-4.09,9.08-6.81,4-2.72,8.96-5.96,14.9-9.72,19.74-12.47,33.34-23.88,40.87-34.15,15.44-21.05,12.05-42.06,11.26-45.78-7.48-35.36-48.53-37.5-61.63-33.19-1.55.51-3.06,1.09-4.52,1.71-2.09-7.95-6.87-16.9-16.66-25.6-41.71-37.07-110.75,14.44-136.24-9.35,1.7,14.73,11.8,22.05,22.97,23.73,31.98,4.81,74.74-31.12,107.03-11.37,12.82,7.84,10.71,21.87,6.21,34.1-5.44,5.77-8.93,12.56-9.87,19.47-1.68,12.33,8.49,22.44,19.82,21.59,20.05-1.5,21.62-26.06,9.06-31.16,5.44-10.76,42.2-17.28,52.68,9.63,4.42,11.35,10.48,36.82-47.24,73.08-16.62,10.44-31.22,24.24-36.79,32.35-5.28,7.42-9.11,15.67-11.47,24.75-.32,1.25.21,2.56,1.32,3.22.78.46,1.74.52,2.58.16,14.57-6.16,28.16-24.33,53.46-17.24,34.92,9.78,10.57,83.08,60.53,89.98-41.27-31.06-10.37-97.68-54.47-105.77Z"/>
    <path d="m268.95,431.66h0c-19.34,0-35.64-5.27-48.45-15.66-13.37-10.84-18.69-23.94-20.69-30.94-.8-2.81.51-5.89,3.21-7.01,3.19-1.31,7.26.37,7.63,3.7,2.17,19.74,22.13,44.66,57.12,44.66h0c18.85,0,34.55-9.65,43.75-21.31,4.5-5.71,6.41-11.8,5.23-16.72,0-.01,0-.02,0-.03-.27-1.13-1.47-1.76-2.57-1.39-2.07.71-4.25,2.08-6.56,3.09-5.81,2.54-9.97,1.04-12.39-.72-1.72-1.25-4.01-3.41-4.03-8.28l.24-151.85c0-3.13,2.54-5.66,5.66-5.66h0c3.13,0,5.66,2.55,5.66,5.67l-.24,148.49c.7-.36,1.4-.73,2-1.05,5.51-2.93,12.36-6.58,18.52-3.8,3.49,1.57,5.83,4.77,6.96,9.49,1.99,8.31-.69,17.92-7.36,26.37-11.33,14.36-31.41,22.93-53.7,22.93Zm33.6-50.19h0,0Z"/>
    <circle cx="274.97" cy="447.77" r="9.88"/>
    <g>
      <path d="m313.11,456.67c1.51-.89,3.28-1.34,5.29-1.34s3.94.5,5.63,1.49c1.68.99,3.01,2.39,3.97,4.19.96,1.8,1.44,3.89,1.44,6.27s-.48,4.45-1.44,6.29c-.96,1.84-2.29,3.27-3.97,4.29-1.69,1.02-3.56,1.53-5.63,1.53s-3.73-.45-5.25-1.34c-1.52-.89-2.67-2-3.46-3.34v15.34h-3.87v-34.33h3.87v4.29c.76-1.33,1.9-2.44,3.42-3.34Zm11.32,6.01c-.71-1.3-1.66-2.29-2.87-2.97-1.2-.68-2.53-1.02-3.97-1.02s-2.73.35-3.93,1.04c-1.2.69-2.17,1.7-2.89,3.02-.72,1.32-1.08,2.84-1.08,4.57s.36,3.29,1.08,4.61c.72,1.32,1.68,2.32,2.89,3.02,1.2.69,2.51,1.04,3.93,1.04s2.77-.35,3.97-1.04c1.2-.69,2.16-1.7,2.87-3.02.71-1.32,1.06-2.87,1.06-4.65s-.35-3.29-1.06-4.59Z"/>
      <path d="m338.77,477.89c-1.77-.99-3.16-2.4-4.16-4.23-1.01-1.83-1.51-3.94-1.51-6.35s.52-4.48,1.55-6.31c1.03-1.83,2.44-3.23,4.23-4.21,1.78-.98,3.78-1.47,5.99-1.47s4.21.49,5.99,1.47c1.78.98,3.19,2.37,4.23,4.18,1.03,1.81,1.55,3.92,1.55,6.33s-.53,4.52-1.59,6.35-2.5,3.24-4.31,4.23c-1.81.99-3.82,1.49-6.03,1.49s-4.16-.5-5.93-1.49Zm9.84-2.89c1.22-.65,2.2-1.63,2.95-2.93.75-1.3,1.13-2.89,1.13-4.76s-.37-3.46-1.1-4.76c-.74-1.3-1.7-2.27-2.89-2.91-1.19-.64-2.48-.96-3.87-.96s-2.71.32-3.89.96c-1.18.64-2.12,1.61-2.83,2.91-.71,1.3-1.06,2.89-1.06,4.76s.35,3.5,1.04,4.8c.69,1.3,1.62,2.27,2.78,2.91,1.16.64,2.44.96,3.82.96s2.69-.33,3.91-.98Z"/>
      <path d="m368.51,456.39c1.26-.74,2.8-1.11,4.61-1.11v3.99h-1.02c-4.33,0-6.5,2.35-6.5,7.05v12.66h-3.87v-23.28h3.87v3.78c.68-1.33,1.65-2.36,2.91-3.1Z"/>
      <path d="m384.93,456.65c1.53-.88,3.27-1.32,5.23-1.32,2.1,0,3.98.5,5.65,1.49,1.67.99,2.99,2.39,3.95,4.19.96,1.8,1.44,3.89,1.44,6.27s-.48,4.45-1.44,6.29c-.96,1.84-2.29,3.27-3.97,4.29-1.69,1.02-3.56,1.53-5.63,1.53s-3.77-.44-5.29-1.32c-1.52-.88-2.66-2-3.42-3.36v4.29h-3.87v-31.44h3.87v12.49c.79-1.39,1.95-2.52,3.48-3.4Zm11.26,6.03c-.71-1.3-1.66-2.29-2.87-2.97-1.2-.68-2.53-1.02-3.97-1.02s-2.73.35-3.93,1.04c-1.2.69-2.17,1.7-2.89,3.02-.72,1.32-1.08,2.84-1.08,4.57s.36,3.29,1.08,4.61c.72,1.32,1.68,2.32,2.89,3.02,1.2.69,2.51,1.04,3.93,1.04s2.77-.35,3.97-1.04c1.2-.69,2.16-1.7,2.87-3.02.71-1.32,1.06-2.87,1.06-4.65s-.35-3.29-1.06-4.59Z"/>
      <path d="m410.53,477.89c-1.77-.99-3.16-2.4-4.16-4.23-1.01-1.83-1.51-3.94-1.51-6.35s.52-4.48,1.55-6.31c1.03-1.83,2.44-3.23,4.23-4.21,1.78-.98,3.78-1.47,5.99-1.47s4.21.49,5.99,1.47c1.78.98,3.19,2.37,4.23,4.18,1.03,1.81,1.55,3.92,1.55,6.33s-.53,4.52-1.59,6.35-2.5,3.24-4.31,4.23c-1.81.99-3.82,1.49-6.03,1.49s-4.16-.5-5.93-1.49Zm9.84-2.89c1.22-.65,2.2-1.63,2.95-2.93.75-1.3,1.13-2.89,1.13-4.76s-.37-3.46-1.1-4.76c-.74-1.3-1.7-2.27-2.89-2.91-1.19-.64-2.48-.96-3.87-.96s-2.71.32-3.89.96c-1.18.64-2.12,1.61-2.83,2.91-.71,1.3-1.06,2.89-1.06,4.76s.35,3.5,1.04,4.8c.69,1.3,1.62,2.27,2.78,2.91,1.16.64,2.44.96,3.82.96s2.69-.33,3.91-.98Z"/>
      <path d="m433.62,451.17c-.51-.51-.76-1.13-.76-1.87s.25-1.36.76-1.87c.51-.51,1.13-.76,1.87-.76s1.31.26,1.81.76c.5.51.74,1.13.74,1.87s-.25,1.36-.74,1.87c-.5.51-1.1.76-1.81.76s-1.36-.26-1.87-.76Zm3.74,4.55v23.28h-3.87v-23.28h3.87Z"/>
      <path d="m443.31,478.49c-.51-.51-.76-1.13-.76-1.87s.25-1.36.76-1.87c.51-.51,1.13-.76,1.87-.76s1.31.26,1.81.76c.5.51.74,1.13.74,1.87s-.25,1.36-.74,1.87c-.5.51-1.1.76-1.81.76s-1.36-.26-1.87-.76Z"/>
      <path d="m452.99,451.17c-.51-.51-.76-1.13-.76-1.87s.25-1.36.76-1.87c.51-.51,1.13-.76,1.87-.76s1.31.26,1.81.76c.5.51.74,1.13.74,1.87s-.25,1.36-.74,1.87c-.5.51-1.1.76-1.81.76s-1.36-.26-1.87-.76Zm3.74,4.55v23.28h-3.87v-23.28h3.87Z"/>
      <path d="m481.54,457.86c1.76,1.71,2.63,4.18,2.63,7.41v13.72h-3.82v-13.17c0-2.32-.58-4.1-1.74-5.33-1.16-1.23-2.75-1.85-4.76-1.85s-3.66.64-4.86,1.91c-1.2,1.27-1.81,3.13-1.81,5.57v12.87h-3.87v-23.28h3.87v3.31c.76-1.19,1.81-2.11,3.12-2.76,1.32-.65,2.77-.98,4.35-.98,2.83,0,5.13.86,6.88,2.57Z"/>
    </g>
  </g>
</svg>