<svg xmlns="http://www.w3.org/2000/svg" xmlns:xlink="http://www.w3.org/1999/xlink" width="2048" zoomAndPan="magnify" viewBox="0 0 1536 1535.999932" height="2048" preserveAspectRatio="xMidYMid meet" version="1.0"><rect x="-153.6" width="1843.2" fill="#ffffff" y="-153.599993" height="1843.199919" fill-opacity="1"/><rect x="-153.6" width="1843.2" fill="#ffffff" y="-153.599993" height="1843.199919" fill-opacity="1"/><path stroke-linecap="butt" transform="matrix(1.311278, 0, 0, 1.311278, 303.489296, 303.489242)" fill-opacity="1" fill="#ffffff" fill-rule="nonzero" stroke-linejoin="miter" d="M 620.630851 354.329289 C 620.630851 358.687515 620.523608 363.042762 620.309123 367.398008 C 620.094637 371.750276 619.775888 376.093607 619.346917 380.430981 C 618.920925 384.768354 618.38769 389.093811 617.747213 393.404374 C 617.106735 397.714936 616.361994 402.007625 615.512989 406.28244 C 614.663984 410.557254 613.707736 414.808238 612.650204 419.035389 C 611.589692 423.26254 610.427896 427.462881 609.161836 431.633432 C 607.898754 435.803983 606.531409 439.941766 605.06278 444.043801 C 603.59415 448.145836 602.027214 452.212123 600.358994 456.239684 C 598.690773 460.264266 596.924247 464.247142 595.062394 468.188313 C 593.197562 472.126504 591.240382 476.020012 589.184896 479.862877 C 587.132389 483.705742 584.984555 487.497964 582.744373 491.236565 C 580.501213 494.972188 578.171662 498.654188 575.749763 502.279589 C 573.327865 505.90201 570.819576 509.464853 568.224898 512.965137 C 565.62724 516.465421 562.946171 519.900167 560.181692 523.269377 C 557.417212 526.638586 554.572301 529.936301 551.643978 533.165499 C 548.718634 536.394697 545.712859 539.549421 542.632609 542.63265 C 539.54938 545.7129 536.394656 548.718675 533.165458 551.644019 C 529.93626 554.572342 526.638545 557.417253 523.269336 560.181733 C 519.900126 562.946213 516.46538 565.627281 512.965096 568.224939 C 509.464812 570.819617 505.901969 573.327906 502.279548 575.749804 C 498.654147 578.171703 494.972147 580.501254 491.236524 582.744414 C 487.497923 584.984596 483.705701 587.13243 479.862836 589.184937 C 476.019971 591.240423 472.126463 593.197603 468.188272 595.062435 C 464.247101 596.924288 460.264224 598.690814 456.239643 600.359035 C 452.212082 602.027255 448.145795 603.594191 444.04376 605.062821 C 439.941725 606.531451 435.803942 607.898795 431.633391 609.161877 C 427.46284 610.427937 423.262499 611.589733 419.035348 612.650245 C 414.808196 613.707777 410.557213 614.664025 406.282398 615.51303 C 402.007584 616.362035 397.714895 617.106777 393.404332 617.747254 C 389.09377 618.387731 384.768313 618.920966 380.43094 619.346958 C 376.093566 619.775929 371.750235 620.094678 367.397967 620.309164 C 363.04272 620.523649 358.687474 620.630892 354.329248 620.630892 C 349.971022 620.630892 345.615775 620.523649 341.263507 620.309164 C 336.911239 620.094678 332.564929 619.775929 328.227556 619.346958 C 323.890183 618.920966 319.567704 618.387731 315.257142 617.747254 C 310.9436 617.106777 306.650912 616.362035 302.376097 615.51303 C 298.104261 614.664025 293.853278 613.707777 289.623147 612.650245 C 285.395996 611.589733 281.198634 610.427937 277.028083 609.161877 C 272.857532 607.898795 268.719749 606.531451 264.617715 605.062821 C 260.512701 603.594191 256.446413 602.027255 252.421832 600.359035 C 248.394271 598.690814 244.411394 596.924288 240.473203 595.062435 C 236.532032 593.197603 232.641503 591.240423 228.79566 589.184937 C 224.952795 587.13243 221.163551 584.984596 217.42495 582.744414 C 213.686349 580.501254 210.004348 578.171703 206.381926 575.749804 C 202.756526 573.327906 199.196663 570.819617 195.696379 568.224939 C 192.196095 565.627281 188.761348 562.946213 185.392138 560.181733 C 182.022929 557.417253 178.722236 554.572342 175.493038 551.644019 C 172.263839 548.718675 169.109115 545.7129 166.028866 542.63265 C 162.945637 539.549421 159.94284 536.394697 157.014517 533.165499 C 154.089174 529.936301 151.241283 526.638586 148.476803 523.269377 C 145.712324 519.900167 143.031255 516.465421 140.436577 512.965137 C 137.838919 509.464853 135.33063 505.90201 132.908732 502.279589 C 130.489812 498.654188 128.157283 494.972188 125.917101 491.236565 C 123.676919 487.497964 121.529085 483.705742 119.473599 479.862877 C 117.421092 476.020012 115.460933 472.126504 113.59908 468.188313 C 111.734248 464.247142 109.967722 460.264266 108.299501 456.239684 C 106.63426 452.212123 105.064345 448.145836 103.595716 444.043801 C 102.130065 439.938787 100.76272 435.803983 99.49666 431.633432 C 98.230599 427.462881 97.068803 423.26254 96.01127 419.035389 C 94.950759 414.808238 93.99749 410.557254 93.145506 406.28244 C 92.296501 402.007625 91.55176 397.714936 90.911282 393.404374 C 90.273784 389.093811 89.740549 384.768354 89.311578 380.430981 C 88.885586 376.093607 88.563858 371.750276 88.349372 367.398008 C 88.137866 363.042762 88.030623 358.687515 88.030623 354.329289 C 88.030623 349.971063 88.137866 345.615816 88.349372 341.263548 C 88.563858 336.91128 88.885586 332.56497 89.311578 328.227597 C 89.740549 323.890224 90.273784 319.567745 90.911282 315.254204 C 91.55176 310.943641 92.296501 306.650953 93.145506 302.376138 C 93.99749 298.104302 94.950759 293.853319 96.01127 289.623188 C 97.068803 285.396037 98.230599 281.198675 99.49666 277.028124 C 100.76272 272.857573 102.130065 268.71979 103.595716 264.614777 C 105.064345 260.512742 106.63426 256.446454 108.299501 252.421873 C 109.967722 248.394312 111.734248 244.411436 113.59908 240.473244 C 115.460933 236.532073 117.421092 232.641545 119.473599 228.795701 C 121.529085 224.952836 123.676919 221.163592 125.917101 217.424991 C 128.157283 213.68639 130.489812 210.004389 132.908732 206.381967 C 135.33063 202.756567 137.838919 199.196704 140.436577 195.69642 C 143.031255 192.196136 145.712324 188.761389 148.476803 185.39218 C 151.241283 182.02297 154.089174 178.722277 157.014517 175.493079 C 159.94284 172.26388 162.945637 169.109156 166.028866 166.028907 C 169.109115 162.945678 172.263839 159.942881 175.493038 157.014558 C 178.722236 154.089215 182.022929 151.241324 185.392138 148.476844 C 188.761348 145.712365 192.196095 143.031296 195.696379 140.436618 C 199.196663 137.83896 202.756526 135.330672 206.381926 132.908773 C 210.004348 130.486874 213.686349 128.157324 217.42495 125.917142 C 221.163551 123.67696 224.952795 121.529126 228.79566 119.47364 C 232.641503 117.421134 236.532032 115.460975 240.473203 113.599121 C 244.411394 111.734289 248.394271 109.967763 252.421832 108.299542 C 256.446413 106.634301 260.512701 105.064386 264.617715 103.595757 C 268.719749 102.127127 272.857532 100.762761 277.028083 99.496701 C 281.198634 98.230641 285.395996 97.068844 289.623147 96.011312 C 293.853278 94.9508 298.104261 93.997531 302.376097 93.145547 C 306.650912 92.296542 310.9436 91.551801 315.257142 90.911323 C 319.567704 90.273825 323.890183 89.74059 328.227556 89.311619 C 332.564929 88.885627 336.911239 88.563899 341.263507 88.349413 C 345.615775 88.137907 349.971022 88.030664 354.329248 88.030664 C 358.687474 88.030664 363.04272 88.137907 367.397967 88.349413 C 371.750235 88.563899 376.093566 88.885627 380.43094 89.311619 C 384.768313 89.74059 389.09377 90.273825 393.404332 90.911323 C 397.714895 91.551801 402.007584 92.296542 406.282398 93.145547 C 410.557213 93.997531 414.808196 94.9508 419.035348 96.011312 C 423.262499 97.068844 427.46284 98.230641 431.633391 99.496701 C 435.803942 100.762761 439.941725 102.127127 444.04376 103.595757 C 448.145795 105.064386 452.212082 106.634301 456.239643 108.299542 C 460.264224 109.967763 464.247101 111.734289 468.188272 113.599121 C 472.126463 115.460975 476.019971 117.421134 479.862836 119.47364 C 483.705701 121.529126 487.497923 123.67696 491.236524 125.917142 C 494.975125 128.157324 498.654147 130.486874 502.279548 132.908773 C 505.901969 135.330672 509.464812 137.83896 512.965096 140.436618 C 516.46538 143.031296 519.900126 145.712365 523.269336 148.476844 C 526.638545 151.241324 529.93626 154.089215 533.165458 157.014558 C 536.394656 159.942881 539.54938 162.945678 542.632609 166.028907 C 545.712859 169.109156 548.718634 172.26388 551.643978 175.493079 C 554.572301 178.722277 557.417212 182.02297 560.181692 185.39218 C 562.946171 188.761389 565.62724 192.196136 568.224898 195.69642 C 570.819576 199.196704 573.327865 202.756567 575.749763 206.381967 C 578.171662 210.004389 580.501213 213.68639 582.744373 217.424991 C 584.984555 221.163592 587.132389 224.952836 589.184896 228.795701 C 591.240382 232.641545 593.197562 236.532073 595.062394 240.473244 C 596.924247 244.411436 598.690773 248.394312 600.358994 252.421873 C 602.027214 256.446454 603.59415 260.512742 605.06278 264.614777 C 606.531409 268.71979 607.898754 272.857573 609.161836 277.028124 C 610.427896 281.198675 611.589692 285.396037 612.650204 289.623188 C 613.707736 293.853319 614.663984 298.104302 615.512989 302.376138 C 616.361994 306.650953 617.106735 310.943641 617.747213 315.254204 C 618.38769 319.567745 618.920925 323.890224 619.346917 328.227597 C 619.775888 332.56497 620.094637 336.91128 620.309123 341.263548 C 620.523608 345.615816 620.630851 349.971063 620.630851 354.329289 Z M 620.630851 354.329289 " stroke="#000000" stroke-width="4" stroke-opacity="1" stroke-miterlimit="10"/><path fill="#000000" d="M 768.113281 1098.332031 C 679.917969 1098.332031 596.992188 1063.992188 534.613281 1001.613281 C 472.238281 939.234375 437.894531 856.324219 437.894531 768.113281 C 437.894531 679.90625 472.238281 596.992188 534.613281 534.613281 C 596.992188 472.238281 679.90625 437.894531 768.113281 437.894531 C 856.324219 437.894531 939.234375 472.238281 1001.613281 534.613281 C 1063.992188 596.992188 1098.332031 679.90625 1098.332031 768.113281 C 1098.332031 856.324219 1063.992188 939.234375 1001.613281 1001.613281 C 939.25 1063.976562 856.324219 1098.332031 768.113281 1098.332031 Z M 768.113281 440.53125 C 587.484375 440.53125 440.519531 587.484375 440.519531 768.113281 C 440.519531 948.742188 587.472656 1095.699219 768.113281 1095.699219 C 948.757812 1095.699219 1095.699219 948.742188 1095.699219 768.113281 C 1095.699219 587.484375 948.742188 440.53125 768.113281 440.53125 Z M 768.113281 440.53125 " fill-opacity="1" fill-rule="nonzero"/><path fill="#ed5e5a" d="M 818.835938 669.164062 C 804.671875 685.1875 777.910156 713.328125 768.640625 725.234375 C 762.632812 732.957031 761.585938 750.988281 775.863281 757.074219 C 777.753906 746.9375 786.050781 738.769531 796.832031 737.535156 C 810.050781 736.027344 821.996094 745.519531 823.503906 758.738281 C 823.832031 761.597656 823.632812 764.390625 823.003906 767.039062 C 826.074219 767.234375 829.21875 767.355469 832.445312 767.328125 C 838.070312 767.289062 840.101562 765.242188 839.816406 760.535156 C 839.816406 760.535156 830.9375 697.765625 834.03125 673.886719 C 835.042969 666.058594 822.808594 664.65625 818.820312 669.152344 Z M 818.835938 669.164062 " fill-opacity="1" fill-rule="nonzero"/><path fill="#000000" d="M 813.617188 762.304688 C 813.617188 763.238281 813.523438 764.164062 813.34375 765.082031 C 813.160156 765.996094 812.890625 766.886719 812.53125 767.75 C 812.175781 768.613281 811.738281 769.433594 811.21875 770.210938 C 810.699219 770.984375 810.109375 771.703125 809.449219 772.367188 C 808.789062 773.027344 808.070312 773.617188 807.292969 774.136719 C 806.515625 774.652344 805.695312 775.09375 804.832031 775.449219 C 803.96875 775.808594 803.078125 776.078125 802.164062 776.257812 C 801.246094 776.441406 800.324219 776.53125 799.386719 776.53125 C 798.453125 776.53125 797.527344 776.441406 796.613281 776.257812 C 795.695312 776.078125 794.808594 775.808594 793.945312 775.449219 C 793.082031 775.09375 792.261719 774.652344 791.484375 774.132812 C 790.707031 773.617188 789.988281 773.027344 789.328125 772.367188 C 788.667969 771.703125 788.078125 770.984375 787.558594 770.210938 C 787.039062 769.433594 786.601562 768.613281 786.242188 767.75 C 785.886719 766.886719 785.617188 765.996094 785.433594 765.082031 C 785.25 764.164062 785.160156 763.238281 785.160156 762.304688 C 785.160156 761.371094 785.25 760.445312 785.433594 759.53125 C 785.617188 758.613281 785.886719 757.722656 786.242188 756.859375 C 786.601562 755.996094 787.039062 755.175781 787.558594 754.402344 C 788.078125 753.625 788.667969 752.90625 789.328125 752.246094 C 789.988281 751.585938 790.707031 750.996094 791.484375 750.476562 C 792.261719 749.957031 793.082031 749.519531 793.945312 749.160156 C 794.808594 748.804688 795.695312 748.535156 796.613281 748.351562 C 797.527344 748.167969 798.453125 748.078125 799.386719 748.078125 C 800.324219 748.078125 801.246094 748.167969 802.164062 748.351562 C 803.078125 748.535156 803.96875 748.804688 804.832031 749.160156 C 805.695312 749.519531 806.515625 749.957031 807.292969 750.476562 C 808.070312 750.996094 808.789062 751.585938 809.449219 752.246094 C 810.109375 752.90625 810.699219 753.625 811.21875 754.402344 C 811.738281 755.175781 812.175781 755.996094 812.53125 756.859375 C 812.890625 757.722656 813.160156 758.613281 813.34375 759.53125 C 813.523438 760.445312 813.617188 761.371094 813.617188 762.304688 Z M 813.617188 762.304688 " fill-opacity="1" fill-rule="nonzero"/><path fill="#000000" d="M 560.628906 765.335938 L 568.984375 747.265625 C 569.296875 746.597656 599.234375 683 656.261719 662.738281 L 656.261719 828.078125 C 656.261719 831.738281 659.226562 834.714844 662.898438 834.714844 C 666.554688 834.714844 669.53125 831.75 669.53125 828.078125 L 669.53125 592.824219 C 669.53125 589.164062 666.570312 586.1875 662.898438 586.1875 C 659.238281 586.1875 656.261719 589.152344 656.261719 592.824219 L 656.261719 607.101562 C 629.523438 582.660156 603.773438 571.777344 579.578125 574.753906 C 545.644531 578.921875 527.457031 610.132812 527.457031 610.132812 L 560.644531 765.347656 Z M 598.488281 596.625 C 621.171875 593.898438 629.222656 597.84375 656.261719 625.566406 L 656.261719 632.015625 C 609.527344 646.585938 581.269531 686.015625 565.71875 725.667969 L 558.769531 621.605469 C 564.117188 614.367188 577.691406 599.117188 598.488281 596.625 Z M 598.488281 596.625 " fill-opacity="1" fill-rule="nonzero"/><path fill="#000000" d="M 843.789062 814.351562 C 822.414062 814.351562 796.347656 805.8125 772.429688 790.761719 C 744.433594 773.136719 724.121094 749.691406 716.6875 726.402344 C 711.507812 710.167969 714.890625 693.84375 726.230469 680.429688 C 749.625 652.761719 802.011719 640.984375 862.957031 649.691406 C 865.660156 650.074219 867.929688 651.660156 869.160156 654.019531 C 871.390625 658.292969 869.398438 662.28125 866.851562 667.316406 C 864.113281 672.746094 859.980469 680.964844 860.023438 689.6875 C 860.101562 709.539062 863.613281 729.746094 866.722656 747.578125 C 871.285156 773.816406 874.90625 794.535156 866.183594 806.023438 C 862.683594 810.640625 857.621094 813.328125 851.144531 813.984375 C 848.769531 814.21875 846.304688 814.335938 843.789062 814.335938 Z M 824.800781 661.769531 C 785.371094 661.769531 760.707031 673.375 745.363281 691.523438 C 737.21875 701.160156 734.953125 711.875 738.625 723.386719 C 751.90625 765.019531 809.394531 806.035156 848.785156 806.050781 C 850.789062 806.050781 852.742188 805.957031 854.644531 805.761719 C 857.597656 805.460938 858.710938 804.449219 859.339844 803.609375 C 864.140625 797.277344 855.550781 770.105469 852.074219 750.148438 C 848.863281 731.738281 845.230469 710.875 845.152344 689.765625 C 845.113281 679.078125 849.113281 669.714844 852.246094 663.316406 C 842.832031 662.28125 833.640625 661.769531 824.800781 661.769531 Z M 824.800781 661.769531 " fill-opacity="1" fill-rule="nonzero"/><path fill="#000000" d="M 937.359375 823.28125 C 912.566406 818.730469 899.007812 827.726562 876.136719 836.617188 C 882.640625 829.152344 888.6875 823.121094 894.246094 818.507812 C 896.949219 816.121094 900.921875 813.144531 906.152344 809.578125 C 911.398438 806.011719 917.902344 801.761719 925.691406 796.832031 C 951.574219 780.480469 969.410156 765.519531 979.28125 752.050781 C 999.527344 724.449219 995.082031 696.898438 994.046875 692.019531 C 984.238281 645.652344 930.410156 642.847656 913.234375 648.5 C 911.199219 649.167969 909.222656 649.929688 907.304688 650.742188 C 904.566406 640.316406 898.296875 628.582031 885.460938 617.171875 C 830.765625 568.5625 740.238281 636.109375 706.8125 604.914062 C 709.042969 624.226562 722.285156 633.828125 736.933594 636.027344 C 778.867188 642.335938 834.9375 595.222656 877.277344 621.121094 C 894.089844 631.402344 891.320312 649.796875 885.421875 665.835938 C 878.289062 673.402344 873.710938 682.304688 872.480469 691.363281 C 870.277344 707.53125 883.613281 720.789062 898.46875 719.675781 C 924.757812 717.707031 926.816406 685.503906 910.347656 678.816406 C 917.480469 664.707031 965.683594 656.15625 979.425781 691.445312 C 985.222656 706.328125 993.167969 739.726562 917.480469 787.273438 C 895.6875 800.960938 876.542969 819.058594 869.238281 829.691406 C 862.316406 839.421875 857.292969 850.238281 854.199219 862.144531 C 853.78125 863.785156 854.476562 865.503906 855.929688 866.367188 C 856.953125 866.972656 858.210938 867.050781 859.3125 866.578125 C 878.417969 858.5 896.238281 834.675781 929.414062 843.972656 C 975.203125 856.796875 943.273438 952.914062 1008.785156 961.960938 C 954.667969 921.230469 995.1875 833.875 937.359375 823.265625 Z M 937.359375 823.28125 " fill-opacity="1" fill-rule="nonzero"/><path fill="#000000" d="M 656.15625 869.515625 C 630.796875 869.515625 609.421875 862.605469 592.625 848.980469 C 575.09375 834.765625 568.117188 817.589844 565.496094 808.410156 C 564.445312 804.726562 566.164062 800.6875 569.703125 799.21875 C 573.886719 797.5 579.226562 799.703125 579.710938 804.070312 C 582.554688 829.953125 608.730469 862.632812 654.609375 862.632812 C 679.328125 862.632812 699.914062 849.976562 711.976562 834.6875 C 717.878906 827.199219 720.382812 819.214844 718.835938 812.761719 C 718.835938 812.75 718.835938 812.738281 718.835938 812.722656 C 718.484375 811.242188 716.910156 810.417969 715.464844 810.902344 C 712.753906 811.832031 709.894531 813.628906 706.863281 814.953125 C 699.246094 818.285156 693.792969 816.316406 690.617188 814.007812 C 688.363281 812.371094 685.359375 809.539062 685.332031 803.152344 L 685.648438 604.035156 C 685.648438 599.929688 688.980469 596.613281 693.070312 596.613281 C 697.175781 596.613281 700.492188 599.957031 700.492188 604.046875 L 700.175781 798.757812 C 701.09375 798.285156 702.011719 797.800781 702.800781 797.382812 C 710.023438 793.539062 719.007812 788.753906 727.085938 792.398438 C 731.660156 794.457031 734.730469 798.652344 736.210938 804.84375 C 738.820312 815.738281 735.304688 828.339844 726.558594 839.421875 C 711.703125 858.25 685.371094 869.488281 656.144531 869.488281 Z M 700.214844 803.703125 Z M 700.214844 803.703125 " fill-opacity="1" fill-rule="nonzero"/><path fill="#000000" d="M 677.007812 890.640625 C 677.007812 891.492188 676.921875 892.332031 676.757812 893.167969 C 676.59375 894 676.347656 894.8125 676.019531 895.597656 C 675.695312 896.382812 675.296875 897.128906 674.824219 897.835938 C 674.351562 898.542969 673.8125 899.199219 673.210938 899.800781 C 672.609375 900.402344 671.957031 900.9375 671.25 901.410156 C 670.542969 901.882812 669.796875 902.285156 669.007812 902.609375 C 668.222656 902.933594 667.414062 903.179688 666.578125 903.347656 C 665.746094 903.511719 664.902344 903.59375 664.050781 903.59375 C 663.199219 903.59375 662.359375 903.511719 661.523438 903.347656 C 660.691406 903.179688 659.878906 902.933594 659.09375 902.609375 C 658.308594 902.285156 657.5625 901.882812 656.855469 901.410156 C 656.144531 900.9375 655.492188 900.402344 654.890625 899.800781 C 654.289062 899.199219 653.75 898.542969 653.277344 897.835938 C 652.804688 897.128906 652.40625 896.382812 652.082031 895.597656 C 651.757812 894.8125 651.511719 894 651.34375 893.167969 C 651.179688 892.332031 651.097656 891.492188 651.097656 890.640625 C 651.097656 889.789062 651.179688 888.945312 651.34375 888.113281 C 651.511719 887.277344 651.757812 886.46875 652.082031 885.683594 C 652.40625 884.894531 652.804688 884.148438 653.277344 883.441406 C 653.75 882.734375 654.289062 882.082031 654.890625 881.480469 C 655.492188 880.878906 656.144531 880.339844 656.855469 879.867188 C 657.5625 879.394531 658.308594 878.996094 659.09375 878.671875 C 659.878906 878.34375 660.691406 878.097656 661.523438 877.933594 C 662.359375 877.765625 663.199219 877.683594 664.050781 877.683594 C 664.902344 877.683594 665.746094 877.765625 666.578125 877.933594 C 667.414062 878.097656 668.222656 878.34375 669.007812 878.671875 C 669.796875 878.996094 670.542969 879.394531 671.25 879.867188 C 671.957031 880.339844 672.609375 880.878906 673.210938 881.480469 C 673.8125 882.082031 674.351562 882.734375 674.824219 883.441406 C 675.296875 884.148438 675.695312 884.894531 676.019531 885.683594 C 676.347656 886.46875 676.59375 887.277344 676.757812 888.113281 C 676.921875 888.945312 677.007812 889.789062 677.007812 890.640625 Z M 677.007812 890.640625 " fill-opacity="1" fill-rule="nonzero"/><path fill="#000000" d="M 714.0625 902.308594 C 716.042969 901.144531 718.363281 900.554688 721 900.554688 C 723.636719 900.554688 726.167969 901.207031 728.382812 902.507812 C 730.585938 903.804688 732.328125 905.640625 733.589844 908 C 734.847656 910.363281 735.476562 913.101562 735.476562 916.222656 C 735.476562 919.34375 734.847656 922.058594 733.589844 924.472656 C 732.328125 926.882812 730.585938 928.757812 728.382812 930.097656 C 726.167969 931.433594 723.714844 932.101562 721 932.101562 C 718.285156 932.101562 716.109375 931.511719 714.117188 930.34375 C 712.121094 929.179688 710.613281 927.722656 709.578125 925.964844 L 709.578125 946.082031 L 704.503906 946.082031 L 704.503906 901.066406 L 709.578125 901.066406 L 709.578125 906.691406 C 710.574219 904.945312 712.070312 903.492188 714.0625 902.308594 Z M 728.90625 910.191406 C 727.976562 908.488281 726.730469 907.1875 725.144531 906.296875 C 723.570312 905.40625 721.824219 904.960938 719.9375 904.960938 C 718.050781 904.960938 716.359375 905.417969 714.785156 906.324219 C 713.210938 907.226562 711.9375 908.550781 710.996094 910.28125 C 710.050781 912.015625 709.578125 914.007812 709.578125 916.277344 C 709.578125 918.542969 710.050781 920.589844 710.996094 922.320312 C 711.9375 924.050781 713.199219 925.363281 714.785156 926.28125 C 716.359375 927.183594 718.074219 927.644531 719.9375 927.644531 C 721.800781 927.644531 723.570312 927.183594 725.144531 926.28125 C 726.71875 925.375 727.976562 924.050781 728.90625 922.320312 C 729.839844 920.589844 730.296875 918.558594 730.296875 916.222656 C 730.296875 913.890625 729.839844 911.910156 728.90625 910.203125 Z M 728.90625 910.191406 " fill-opacity="1" fill-rule="nonzero"/><path fill="#000000" d="M 747.710938 930.136719 C 745.390625 928.835938 743.566406 926.988281 742.257812 924.589844 C 740.929688 922.1875 740.277344 919.421875 740.277344 916.261719 C 740.277344 913.101562 740.957031 910.386719 742.308594 907.988281 C 743.660156 905.589844 745.507812 903.753906 747.855469 902.46875 C 750.1875 901.183594 752.8125 900.539062 755.710938 900.539062 C 758.609375 900.539062 761.230469 901.183594 763.5625 902.46875 C 765.898438 903.753906 767.746094 905.574219 769.109375 907.949219 C 770.460938 910.320312 771.144531 913.089844 771.144531 916.25 C 771.144531 919.410156 770.449219 922.175781 769.058594 924.574219 C 767.667969 926.976562 765.78125 928.824219 763.40625 930.121094 C 761.035156 931.421875 758.398438 932.078125 755.5 932.078125 C 752.601562 932.078125 750.042969 931.421875 747.722656 930.121094 Z M 760.613281 926.347656 C 762.214844 925.492188 763.5 924.207031 764.480469 922.503906 C 765.464844 920.800781 765.964844 918.714844 765.964844 916.261719 C 765.964844 913.808594 765.480469 911.726562 764.519531 910.019531 C 763.550781 908.316406 762.292969 907.042969 760.730469 906.203125 C 759.171875 905.367188 757.480469 904.945312 755.65625 904.945312 C 753.835938 904.945312 752.105469 905.367188 750.554688 906.203125 C 749.007812 907.042969 747.777344 908.316406 746.84375 910.019531 C 745.914062 911.726562 745.457031 913.808594 745.457031 916.261719 C 745.457031 918.714844 745.914062 920.851562 746.820312 922.554688 C 747.722656 924.261719 748.945312 925.53125 750.464844 926.371094 C 751.984375 927.210938 753.664062 927.632812 755.472656 927.632812 C 757.28125 927.632812 759 927.199219 760.601562 926.347656 Z M 760.613281 926.347656 " fill-opacity="1" fill-rule="nonzero"/><path fill="#000000" d="M 786.707031 901.941406 C 788.359375 900.972656 790.378906 900.488281 792.753906 900.488281 L 792.753906 905.71875 L 791.414062 905.71875 C 785.738281 905.71875 782.890625 908.800781 782.890625 914.964844 L 782.890625 931.566406 L 777.816406 931.566406 L 777.816406 901.039062 L 782.890625 901.039062 L 782.890625 905.996094 C 783.785156 904.25 785.054688 902.902344 786.707031 901.929688 Z M 786.707031 901.941406 " fill-opacity="1" fill-rule="nonzero"/><path fill="#000000" d="M 808.238281 902.285156 C 810.246094 901.128906 812.527344 900.554688 815.097656 900.554688 C 817.851562 900.554688 820.316406 901.207031 822.507812 902.507812 C 824.695312 903.804688 826.425781 905.640625 827.6875 908 C 828.945312 910.363281 829.574219 913.101562 829.574219 916.222656 C 829.574219 919.34375 828.945312 922.058594 827.6875 924.472656 C 826.425781 926.882812 824.683594 928.757812 822.480469 930.097656 C 820.265625 931.433594 817.8125 932.101562 815.097656 932.101562 C 812.382812 932.101562 810.152344 931.527344 808.160156 930.371094 C 806.167969 929.21875 804.671875 927.75 803.675781 925.964844 L 803.675781 931.589844 L 798.601562 931.589844 L 798.601562 890.363281 L 803.675781 890.363281 L 803.675781 906.742188 C 804.710938 904.917969 806.234375 903.4375 808.238281 902.285156 Z M 823.003906 910.191406 C 822.074219 908.488281 820.828125 907.1875 819.242188 906.296875 C 817.667969 905.40625 815.921875 904.960938 814.035156 904.960938 C 812.148438 904.960938 810.457031 905.417969 808.882812 906.324219 C 807.308594 907.226562 806.035156 908.550781 805.09375 910.28125 C 804.148438 912.015625 803.675781 914.007812 803.675781 916.277344 C 803.675781 918.542969 804.148438 920.589844 805.09375 922.320312 C 806.035156 924.050781 807.296875 925.363281 808.882812 926.28125 C 810.457031 927.183594 812.171875 927.644531 814.035156 927.644531 C 815.898438 927.644531 817.667969 927.183594 819.242188 926.28125 C 820.816406 925.375 822.074219 924.050781 823.003906 922.320312 C 823.933594 920.589844 824.394531 918.558594 824.394531 916.222656 C 824.394531 913.890625 823.933594 911.910156 823.003906 910.203125 Z M 823.003906 910.191406 " fill-opacity="1" fill-rule="nonzero"/><path fill="#000000" d="M 841.808594 930.136719 C 839.488281 928.835938 837.664062 926.988281 836.351562 924.589844 C 835.027344 922.1875 834.375 919.421875 834.375 916.261719 C 834.375 913.101562 835.054688 910.386719 836.40625 907.988281 C 837.757812 905.589844 839.605469 903.753906 841.953125 902.46875 C 844.285156 901.183594 846.910156 900.539062 849.808594 900.539062 C 852.703125 900.539062 855.328125 901.183594 857.660156 902.46875 C 859.996094 903.753906 861.84375 905.574219 863.207031 907.949219 C 864.558594 910.320312 865.242188 913.089844 865.242188 916.25 C 865.242188 919.410156 864.546875 922.175781 863.15625 924.574219 C 861.765625 926.976562 859.878906 928.824219 857.503906 930.121094 C 855.128906 931.421875 852.496094 932.078125 849.597656 932.078125 C 846.699219 932.078125 844.140625 931.421875 841.820312 930.121094 Z M 854.710938 926.347656 C 856.3125 925.492188 857.597656 924.207031 858.578125 922.503906 C 859.5625 920.800781 860.0625 918.714844 860.0625 916.261719 C 860.0625 913.808594 859.574219 911.726562 858.617188 910.019531 C 857.648438 908.316406 856.390625 907.042969 854.828125 906.203125 C 853.269531 905.367188 851.578125 904.945312 849.753906 904.945312 C 847.933594 904.945312 846.199219 905.367188 844.652344 906.203125 C 843.105469 907.042969 841.875 908.316406 840.941406 910.019531 C 840.011719 911.726562 839.550781 913.808594 839.550781 916.261719 C 839.550781 918.714844 840.011719 920.851562 840.917969 922.554688 C 841.820312 924.261719 843.039062 925.53125 844.5625 926.371094 C 846.082031 927.210938 847.761719 927.632812 849.570312 927.632812 C 851.378906 927.632812 853.097656 927.199219 854.699219 926.347656 Z M 854.710938 926.347656 " fill-opacity="1" fill-rule="nonzero"/><path fill="#000000" d="M 872.085938 895.097656 C 871.417969 894.429688 871.089844 893.617188 871.089844 892.644531 C 871.089844 891.675781 871.417969 890.863281 872.085938 890.195312 C 872.753906 889.527344 873.566406 889.199219 874.539062 889.199219 C 875.507812 889.199219 876.253906 889.539062 876.910156 890.195312 C 877.566406 890.863281 877.882812 891.675781 877.882812 892.644531 C 877.882812 893.617188 877.554688 894.429688 876.910156 895.097656 C 876.253906 895.765625 875.46875 896.09375 874.539062 896.09375 C 873.605469 896.09375 872.753906 895.753906 872.085938 895.097656 Z M 876.988281 901.066406 L 876.988281 931.589844 L 871.914062 931.589844 L 871.914062 901.066406 Z M 876.988281 901.066406 " fill-opacity="1" fill-rule="nonzero"/><path fill="#000000" d="M 884.792969 930.921875 C 884.121094 930.253906 883.796875 929.441406 883.796875 928.46875 C 883.796875 927.5 884.121094 926.6875 884.792969 926.019531 C 885.460938 925.347656 886.273438 925.023438 887.242188 925.023438 C 888.214844 925.023438 888.960938 925.363281 889.617188 926.019531 C 890.273438 926.6875 890.585938 927.5 890.585938 928.46875 C 890.585938 929.441406 890.257812 930.253906 889.617188 930.921875 C 888.960938 931.589844 888.175781 931.917969 887.242188 931.917969 C 886.3125 931.917969 885.460938 931.578125 884.792969 930.921875 Z M 884.792969 930.921875 " fill-opacity="1" fill-rule="nonzero"/><path fill="#000000" d="M 897.484375 895.097656 C 896.816406 894.429688 896.488281 893.617188 896.488281 892.644531 C 896.488281 891.675781 896.816406 890.863281 897.484375 890.195312 C 898.152344 889.527344 898.964844 889.199219 899.9375 889.199219 C 900.90625 889.199219 901.65625 889.539062 902.308594 890.195312 C 902.964844 890.863281 903.28125 891.675781 903.28125 892.644531 C 903.28125 893.617188 902.953125 894.429688 902.308594 895.097656 C 901.65625 895.765625 900.867188 896.09375 899.9375 896.09375 C 899.007812 896.09375 898.152344 895.753906 897.484375 895.097656 Z M 902.390625 901.066406 L 902.390625 931.589844 L 897.3125 931.589844 L 897.3125 901.066406 Z M 902.390625 901.066406 " fill-opacity="1" fill-rule="nonzero"/><path fill="#000000" d="M 934.921875 903.871094 C 937.230469 906.113281 938.371094 909.351562 938.371094 913.585938 L 938.371094 931.578125 L 933.363281 931.578125 L 933.363281 914.308594 C 933.363281 911.265625 932.601562 908.933594 931.078125 907.320312 C 929.558594 905.707031 927.472656 904.894531 924.839844 904.894531 C 922.203125 904.894531 920.039062 905.734375 918.464844 907.398438 C 916.890625 909.0625 916.09375 911.503906 916.09375 914.703125 L 916.09375 931.578125 L 911.015625 931.578125 L 911.015625 901.050781 L 916.09375 901.050781 L 916.09375 905.390625 C 917.089844 903.832031 918.464844 902.625 920.183594 901.773438 C 921.914062 900.921875 923.816406 900.488281 925.886719 900.488281 C 929.597656 900.488281 932.613281 901.617188 934.910156 903.859375 Z M 934.921875 903.871094 " fill-opacity="1" fill-rule="nonzero"/></svg>