<?xml version="1.0" encoding="UTF-8"?>
<svg id="Layer_1" data-name="Layer 1" xmlns="http://www.w3.org/2000/svg" viewBox="0 0 708.66 708.66">
  <g>
    <path d="m408.96,247.77c-15.25,17.25-44.08,47.56-54.05,60.39-6.47,8.32-7.59,27.74,7.78,34.29,2.03-10.92,10.97-19.71,22.58-21.04,14.24-1.62,27.1,8.6,28.72,22.84.35,3.08.15,6.09-.53,8.93,3.31.21,6.69.33,10.17.3,6.06-.05,8.25-2.24,7.94-7.31,0,0-9.56-67.61-6.22-93.32,1.09-8.43-12.09-9.94-16.38-5.1Z" fill="#e0873f"/>
    <circle cx="388.01" cy="348.08" r="15.32"/>
  </g>
  <path d="m130.88,351.33l8.99-19.47c.33-.72,32.58-69.21,94-91.04v178.06c0,3.95,3.2,7.14,7.14,7.14h0c3.95,0,7.14-3.2,7.14-7.14v-253.37c0-3.95-3.2-7.14-7.14-7.14h0c-3.95,0-7.14,3.2-7.14,7.14v15.38c-28.8-26.33-56.52-38.04-82.59-34.84-36.55,4.49-56.14,38.11-56.14,38.11l35.74,167.16Zm40.77-181.69c24.44-2.94,33.1,1.31,62.22,31.17v6.95c-50.33,15.7-80.77,58.15-97.52,100.87l-7.48-112.07c5.77-7.79,20.38-24.22,42.78-26.91Z"/>
  <path d="m435.83,404.12c-23.02,0-51.09-9.19-76.85-25.4-30.15-18.98-52.03-44.24-60.03-69.31-5.58-17.48-1.93-35.07,10.28-49.51,25.2-29.8,81.62-42.48,147.25-33.11,2.92.42,5.35,2.11,6.68,4.66,2.41,4.61.25,8.9-2.49,14.33-2.95,5.85-7.4,14.7-7.36,24.1h0c.08,21.38,3.87,43.14,7.21,62.34,4.92,28.26,8.81,50.57-.57,62.95-3.77,4.98-9.23,7.86-16.2,8.57-2.56.26-5.2.39-7.92.39Zm-20.44-164.33c-42.47,0-69.04,12.5-85.56,32.04-8.77,10.37-11.21,21.92-7.26,34.31,14.31,44.84,76.22,89.02,118.64,89.02,2.17,0,4.27-.1,6.31-.31,3.18-.32,4.37-1.41,5.06-2.31,5.17-6.82-4.08-36.09-7.83-57.58-3.45-19.83-7.37-42.3-7.45-65.03-.04-11.51,4.27-21.59,7.64-28.48-10.15-1.12-20.04-1.67-29.56-1.67Z"/>
  <path d="m536.6,413.74c-26.7-4.9-41.3,4.79-65.93,14.37,7.01-8.04,13.51-14.54,19.5-19.5,2.91-2.57,7.18-5.77,12.83-9.62,5.64-3.85,12.65-8.42,21.04-13.73,27.88-17.61,47.08-33.72,57.72-48.23,21.81-29.73,17.02-59.39,15.91-64.65-10.56-49.93-68.53-52.96-87.04-46.87-2.19.72-4.32,1.53-6.39,2.42-2.95-11.23-9.71-23.87-23.53-36.16-58.91-52.35-156.4,20.4-192.4-13.2,2.4,20.8,16.67,31.14,32.44,33.51,45.16,6.79,105.54-43.95,151.14-16.06,18.1,11.07,15.12,30.89,8.77,48.15-7.68,8.15-12.6,17.74-13.94,27.5-2.38,17.41,11.98,31.69,27.98,30.49,28.32-2.12,30.53-36.8,12.8-44,7.69-15.2,59.6-24.4,74.4,13.6,6.24,16.03,14.8,52-66.71,103.2-23.47,14.74-44.09,34.23-51.96,45.69-7.46,10.47-12.86,22.13-16.19,34.96-.46,1.76.29,3.62,1.86,4.54,1.11.65,2.46.73,3.64.23,20.57-8.7,39.76-34.36,75.5-24.35,49.32,13.81,14.93,117.33,85.49,127.07-58.29-43.87-14.64-137.95-76.92-149.37Z"/>
  <path d="m233.75,463.54h-.01c-27.32,0-50.34-7.44-68.42-22.11-18.88-15.31-26.39-33.81-29.22-43.7-1.14-3.97.71-8.32,4.53-9.89,4.51-1.86,10.25.52,10.77,5.22,3.07,27.87,31.25,63.07,80.67,63.07h.01c26.63,0,48.8-13.63,61.79-30.09,6.36-8.06,9.05-16.66,7.39-23.61,0-.02,0-.03-.01-.05-.39-1.6-2.08-2.49-3.63-1.96-2.93,1-6,2.94-9.26,4.37-8.2,3.59-14.09,1.47-17.5-1.02-2.43-1.77-5.66-4.82-5.7-11.7l.34-214.45c0-4.41,3.59-7.99,8-7.99h.01c4.42,0,7.99,3.59,7.99,8.01l-.34,209.7c.99-.51,1.98-1.03,2.82-1.48,7.78-4.14,17.46-9.29,26.15-5.37,4.93,2.22,8.23,6.73,9.83,13.41,2.81,11.74-.98,25.31-10.39,37.24-16,20.28-44.35,32.38-75.83,32.38Zm47.45-70.89h.01-.01Z"/>
  <circle cx="242.26" cy="486.28" r="13.96"/>
  <g>
    <path d="m296.12,498.85c2.14-1.26,4.63-1.89,7.47-1.89s5.57.7,7.95,2.1c2.38,1.4,4.25,3.37,5.61,5.91,1.36,2.54,2.04,5.49,2.04,8.85s-.68,6.28-2.04,8.88c-1.36,2.6-3.23,4.62-5.61,6.06-2.38,1.44-5.03,2.16-7.95,2.16s-5.27-.63-7.41-1.89c-2.14-1.26-3.77-2.83-4.89-4.71v21.66h-5.46v-48.48h5.46v6.06c1.08-1.88,2.69-3.45,4.83-4.71Zm15.99,8.49c-1-1.84-2.35-3.24-4.05-4.2-1.7-.96-3.57-1.44-5.61-1.44s-3.85.49-5.55,1.47c-1.7.98-3.06,2.4-4.08,4.26-1.02,1.86-1.53,4.01-1.53,6.45s.51,4.65,1.53,6.51c1.02,1.86,2.38,3.28,4.08,4.26,1.7.98,3.55,1.47,5.55,1.47s3.91-.49,5.61-1.47c1.7-.98,3.05-2.4,4.05-4.26,1-1.86,1.5-4.05,1.5-6.57s-.5-4.64-1.5-6.48Z"/>
    <path d="m332.36,528.83c-2.5-1.4-4.46-3.39-5.88-5.97-1.42-2.58-2.13-5.57-2.13-8.97s.73-6.33,2.19-8.91c1.46-2.58,3.45-4.56,5.97-5.94,2.52-1.38,5.34-2.07,8.46-2.07s5.94.69,8.46,2.07c2.52,1.38,4.51,3.35,5.97,5.91,1.46,2.56,2.19,5.54,2.19,8.94s-.75,6.39-2.25,8.97-3.53,4.57-6.09,5.97c-2.56,1.4-5.4,2.1-8.52,2.1s-5.87-.7-8.37-2.1Zm13.89-4.08c1.72-.92,3.11-2.3,4.17-4.14,1.06-1.84,1.59-4.08,1.59-6.72s-.52-4.88-1.56-6.72c-1.04-1.84-2.4-3.21-4.08-4.11-1.68-.9-3.5-1.35-5.46-1.35s-3.83.45-5.49,1.35c-1.66.9-2.99,2.27-3.99,4.11-1,1.84-1.5,4.08-1.5,6.72s.49,4.94,1.47,6.78c.98,1.84,2.29,3.21,3.93,4.11,1.64.9,3.44,1.35,5.4,1.35s3.8-.46,5.52-1.38Z"/>
    <path d="m374.36,498.46c1.78-1.04,3.95-1.56,6.51-1.56v5.64h-1.44c-6.12,0-9.18,3.32-9.18,9.96v17.88h-5.46v-32.88h5.46v5.34c.96-1.88,2.33-3.34,4.11-4.38Z"/>
    <path d="m397.55,498.83c2.16-1.24,4.62-1.86,7.38-1.86,2.96,0,5.62.7,7.98,2.1,2.36,1.4,4.22,3.37,5.58,5.91,1.36,2.54,2.04,5.49,2.04,8.85s-.68,6.28-2.04,8.88c-1.36,2.6-3.23,4.62-5.61,6.06-2.38,1.44-5.03,2.16-7.95,2.16s-5.33-.62-7.47-1.86c-2.14-1.24-3.75-2.82-4.83-4.74v6.06h-5.46v-44.4h5.46v17.64c1.12-1.96,2.76-3.56,4.92-4.8Zm15.9,8.52c-1-1.84-2.35-3.24-4.05-4.2-1.7-.96-3.57-1.44-5.61-1.44s-3.85.49-5.55,1.47c-1.7.98-3.06,2.4-4.08,4.26-1.02,1.86-1.53,4.01-1.53,6.45s.51,4.65,1.53,6.51c1.02,1.86,2.38,3.28,4.08,4.26,1.7.98,3.55,1.47,5.55,1.47s3.91-.49,5.61-1.47c1.7-.98,3.05-2.4,4.05-4.26,1-1.86,1.5-4.05,1.5-6.57s-.5-4.64-1.5-6.48Z"/>
    <path d="m433.69,528.83c-2.5-1.4-4.46-3.39-5.88-5.97-1.42-2.58-2.13-5.57-2.13-8.97s.73-6.33,2.19-8.91c1.46-2.58,3.45-4.56,5.97-5.94,2.52-1.38,5.34-2.07,8.46-2.07s5.94.69,8.46,2.07c2.52,1.38,4.51,3.35,5.97,5.91,1.46,2.56,2.19,5.54,2.19,8.94s-.75,6.39-2.25,8.97-3.53,4.57-6.09,5.97c-2.56,1.4-5.4,2.1-8.52,2.1s-5.87-.7-8.37-2.1Zm13.89-4.08c1.72-.92,3.11-2.3,4.17-4.14,1.06-1.84,1.59-4.08,1.59-6.72s-.52-4.88-1.56-6.72c-1.04-1.84-2.4-3.21-4.08-4.11-1.68-.9-3.5-1.35-5.46-1.35s-3.83.45-5.49,1.35c-1.66.9-2.99,2.27-3.99,4.11-1,1.84-1.5,4.08-1.5,6.72s.49,4.94,1.47,6.78c.98,1.84,2.29,3.21,3.93,4.11,1.64.9,3.44,1.35,5.4,1.35s3.8-.46,5.52-1.38Z"/>
    <path d="m466.3,491.08c-.72-.72-1.08-1.6-1.08-2.64s.36-1.92,1.08-2.64c.72-.72,1.6-1.08,2.64-1.08s1.85.36,2.55,1.08c.7.72,1.05,1.6,1.05,2.64s-.35,1.92-1.05,2.64c-.7.72-1.55,1.08-2.55,1.08s-1.92-.36-2.64-1.08Zm5.28,6.42v32.88h-5.46v-32.88h5.46Z"/>
    <path d="m479.98,529.66c-.72-.72-1.08-1.6-1.08-2.64s.36-1.92,1.08-2.64c.72-.72,1.6-1.08,2.64-1.08s1.85.36,2.55,1.08c.7.72,1.05,1.6,1.05,2.64s-.35,1.92-1.05,2.64c-.7.72-1.55,1.08-2.55,1.08s-1.92-.36-2.64-1.08Z"/>
    <path d="m493.66,491.08c-.72-.72-1.08-1.6-1.08-2.64s.36-1.92,1.08-2.64c.72-.72,1.6-1.08,2.64-1.08s1.85.36,2.55,1.08c.7.72,1.05,1.6,1.05,2.64s-.35,1.92-1.05,2.64c-.7.72-1.55,1.08-2.55,1.08s-1.92-.36-2.64-1.08Zm5.28,6.42v32.88h-5.46v-32.88h5.46Z"/>
    <path d="m533.98,500.54c2.48,2.42,3.72,5.91,3.72,10.47v19.38h-5.4v-18.6c0-3.28-.82-5.79-2.46-7.53-1.64-1.74-3.88-2.61-6.72-2.61s-5.17.9-6.87,2.7c-1.7,1.8-2.55,4.42-2.55,7.86v18.18h-5.46v-32.88h5.46v4.68c1.08-1.68,2.55-2.98,4.41-3.9,1.86-.92,3.91-1.38,6.15-1.38,4,0,7.24,1.21,9.72,3.63Z"/>
  </g>
</svg>